<svg width="65" height="66" viewBox="0 0 65 66" fill="none" xmlns="http://www.w3.org/2000/svg">
<path d="M64.8047 61.256L43.7042 39.8308C46.9785 35.5326 48.7498 30.2774 48.7498 24.7499C48.7498 18.1334 46.2067 11.9294 41.6079 7.25172C37.0092 2.57399 30.883 0 24.3749 0C17.8668 0 11.7406 2.58224 7.14184 7.25172C2.53499 11.9212 0 18.1334 0 24.7499C0 31.3581 2.54311 37.5786 7.14184 42.2481C11.7406 46.9258 17.8587 49.4998 24.3749 49.4998C29.8186 49.4998 34.9861 47.7013 39.2192 44.3848L60.3197 65.8017C60.3816 65.8646 60.4551 65.9144 60.5359 65.9485C60.6168 65.9825 60.7035 66 60.791 66C60.8785 66 60.9652 65.9825 61.046 65.9485C61.1269 65.9144 61.2004 65.8646 61.2622 65.8017L64.8047 62.213C64.8666 62.1502 64.9157 62.0756 64.9492 61.9935C64.9827 61.9114 65 61.8234 65 61.7345C65 61.6456 64.9827 61.5576 64.9492 61.4755C64.9157 61.3934 64.8666 61.3188 64.8047 61.256ZM37.2448 37.8178C33.7999 41.3076 29.2336 43.2298 24.3749 43.2298C19.5162 43.2298 14.9499 41.3076 11.505 37.8178C8.06809 34.3199 6.17497 29.6834 6.17497 24.7499C6.17497 19.8164 8.06809 15.1717 11.505 11.6819C14.9499 8.19221 19.5162 6.26997 24.3749 6.26997C29.2336 6.26997 33.808 8.18396 37.2448 11.6819C40.6817 15.1799 42.5748 19.8164 42.5748 24.7499C42.5748 29.6834 40.6817 34.3281 37.2448 37.8178Z" fill="white"/>
</svg>
