<svg width="65" height="65" viewBox="0 0 65 65" fill="none" xmlns="http://www.w3.org/2000/svg">
  <path
    d="M63.6521 31.9782L35.9487 2.66091L34.0918 0.694788C33.6687 0.249765 33.0965 0 32.5001 0C31.9037 0 31.3316 0.249765 30.9085 0.694788L1.34818 31.9782C0.914645 32.4354 0.572013 32.98 0.34051 33.5798C0.109008 34.1795 -0.00667224 34.8223 0.000297178 35.4702C0.0289756 38.1423 2.12967 40.2754 4.65337 40.2754H7.70046V65H57.2998V40.2754H60.4114C61.6374 40.2754 62.7917 39.7668 63.6592 38.8483C64.0864 38.3974 64.4249 37.8613 64.655 37.2711C64.8851 36.6808 65.0024 36.048 65 35.4094C65 34.1189 64.5196 32.8967 63.6521 31.9782ZM36.5151 59.5343H28.4851V44.0482H36.5151V59.5343ZM52.1377 34.8097V59.5343H41.1037V42.2263C41.1037 40.5487 39.8203 39.1899 38.2358 39.1899H26.7644C25.18 39.1899 23.8966 40.5487 23.8966 42.2263V59.5343H12.8626V34.8097H5.97975L32.5073 6.74499L34.1635 8.49856L59.0277 34.8097H52.1377Z"
    fill="white" />
</svg>
