<svg width="60" height="60" viewBox="0 0 24 25" fill="none" xmlns="http://www.w3.org/2000/svg">
    <path
        d="M12 0.5C10.7639 0.5 9.55549 0.866556 8.52769 1.55331C7.49988 2.24007 6.6988 3.21619 6.22575 4.35823C5.75271 5.50027 5.62893 6.75693 5.87009 7.96931C6.11125 9.1817 6.7065 10.2953 7.58058 11.1694C8.45466 12.0435 9.5683 12.6388 10.7807 12.8799C11.9931 13.1211 13.2497 12.9973 14.3918 12.5242C15.5338 12.0512 16.5099 11.2501 17.1967 10.2223C17.8834 9.19451 18.25 7.98613 18.25 6.75C18.25 5.0924 17.5915 3.50269 16.4194 2.33058C15.2473 1.15848 13.6576 0.5 12 0.5ZM12 10.5C11.2583 10.5 10.5333 10.2801 9.91661 9.86801C9.29993 9.45596 8.81928 8.87029 8.53545 8.18506C8.25162 7.49984 8.17736 6.74584 8.32205 6.01841C8.46675 5.29098 8.8239 4.6228 9.34835 4.09835C9.8728 3.5739 10.541 3.21675 11.2684 3.07206C11.9958 2.92736 12.7498 3.00162 13.4351 3.28545C14.1203 3.56928 14.706 4.04993 15.118 4.66661C15.5301 5.2833 15.75 6.00832 15.75 6.75C15.75 7.74456 15.3549 8.69839 14.6517 9.40165C13.9484 10.1049 12.9946 10.5 12 10.5ZM23.25 24.25V23C23.25 20.6794 22.3281 18.4538 20.6872 16.8128C19.0462 15.1719 16.8206 14.25 14.5 14.25H9.5C7.17936 14.25 4.95376 15.1719 3.31282 16.8128C1.67187 18.4538 0.75 20.6794 0.75 23V24.25H3.25V23C3.25 21.3424 3.90848 19.7527 5.08058 18.5806C6.25269 17.4085 7.8424 16.75 9.5 16.75H14.5C16.1576 16.75 17.7473 17.4085 18.9194 18.5806C20.0915 19.7527 20.75 21.3424 20.75 23V24.25H23.25Z"
        fill="black" />
</svg>