<svg width="26" height="26" viewBox="0 0 26 26" fill="none" xmlns="http://www.w3.org/2000/svg">
    <path
        d="M23.3244 15.6756L21.125 13.4761V10.5625C21.1225 8.54899 20.3735 6.60794 19.0228 5.11467C17.6721 3.62141 15.8157 2.68201 13.8125 2.47812V0.8125H12.1875V2.47812C10.1843 2.68201 8.32793 3.62141 6.97724 5.11467C5.62654 6.60794 4.87752 8.54899 4.875 10.5625V13.4761L2.67556 15.6756C2.52318 15.8279 2.43755 16.0345 2.4375 16.25V18.6875C2.4375 18.903 2.5231 19.1097 2.67548 19.262C2.82785 19.4144 3.03451 19.5 3.25 19.5H8.9375V20.1313C8.91983 21.1621 9.28314 22.1631 9.95782 22.9426C10.6325 23.7221 11.5711 24.2252 12.5938 24.3555C13.1586 24.4115 13.7289 24.3487 14.268 24.1711C14.8071 23.9934 15.303 23.7049 15.7239 23.3241C16.1448 22.9433 16.4814 22.4786 16.7119 21.96C16.9424 21.4413 17.0619 20.8801 17.0625 20.3125V19.5H22.75C22.9655 19.5 23.1722 19.4144 23.3245 19.262C23.4769 19.1097 23.5625 18.903 23.5625 18.6875V16.25C23.5625 16.0345 23.4768 15.8279 23.3244 15.6756ZM15.4375 20.3125C15.4375 20.959 15.1807 21.579 14.7236 22.0361C14.2665 22.4932 13.6465 22.75 13 22.75C12.3535 22.75 11.7335 22.4932 11.2764 22.0361C10.8193 21.579 10.5625 20.959 10.5625 20.3125V19.5H15.4375V20.3125ZM21.9375 17.875H4.0625V16.5864L6.26194 14.3869C6.41432 14.2346 6.49995 14.028 6.5 13.8125V10.5625C6.5 8.83859 7.18482 7.18529 8.40381 5.96631C9.62279 4.74732 11.2761 4.0625 13 4.0625C14.7239 4.0625 16.3772 4.74732 17.5962 5.96631C18.8152 7.18529 19.5 8.83859 19.5 10.5625V13.8125C19.5 14.028 19.5857 14.2346 19.7381 14.3869L21.9375 16.5864V17.875Z"
        fill="white" />
</svg>