<?xml version="1.0" standalone="no"?>
<!DOCTYPE svg PUBLIC "-//W3C//DTD SVG 20010904//EN" "http://www.w3.org/TR/2001/REC-SVG-20010904/DTD/svg10.dtd">
<svg version="1.0" xmlns="http://www.w3.org/2000/svg" width="512.000000pt" height="512.000000pt"
    viewBox="0 0 512.000000 512.000000" preserveAspectRatio="xMidYMid meet">

    <g transform="translate(0.000000,512.000000) scale(0.100000,-0.100000)" fill="#f9458e" stroke="none">
        <path d="M2390 5110 c-821 -51 -1582 -514 -2015 -1226 -492 -807 -493 -1841
-3 -2644 271 -445 616 -763 1063 -980 552 -268 1167 -329 1771 -175 323 83
651 245 933 463 111 85 348 322 433 433 157 203 310 476 393 703 108 293 164
650 151 966 -34 869 -468 1619 -1202 2077 -456 285 -980 416 -1524 383z m-720
-1331 c34 -15 149 -124 467 -442 l423 -422 427 426 c477 476 465 466 586 457
71 -6 111 -23 156 -69 46 -45 63 -85 69 -156 9 -121 19 -109 -457 -585 l-426
-428 426 -428 c476 -476 466 -464 457 -585 -6 -71 -23 -111 -69 -156 -45 -46
-85 -63 -156 -69 -121 -9 -109 -19 -585 457 l-428 426 -427 -426 c-477 -476
-465 -466 -586 -457 -71 6 -111 23 -156 69 -46 45 -63 85 -69 156 -9 121 -19
109 457 586 l426 427 -422 423 c-452 452 -462 464 -463 562 0 90 30 156 94
206 65 51 177 64 256 28z" />
    </g>
</svg>