<svg width="101" height="105" viewBox="0 0 101 105" fill="none" xmlns="http://www.w3.org/2000/svg">
<path d="M59.9778 105H41.0306C39.8435 105 38.6919 104.591 37.7669 103.841C36.8419 103.09 36.1991 102.043 35.9451 100.874L33.8265 90.9825C31.0004 89.7335 28.3206 88.1717 25.8364 86.3258L16.2744 89.397C15.1426 89.761 13.9213 89.7236 12.8135 89.291C11.7057 88.8584 10.7779 88.0566 10.1842 87.0188L0.689808 70.476C0.102369 69.4372 -0.118141 68.2281 0.0643549 67.0464C0.246851 65.8648 0.821547 64.7806 1.69442 63.9713L9.11193 57.1463C8.77461 54.0546 8.77461 50.9349 9.11193 47.8432L1.69442 41.034C0.820311 40.2243 0.244833 39.1391 0.0623072 37.9564C-0.120219 36.7736 0.101036 35.5633 0.689808 34.524L10.1634 17.9707C10.7571 16.9329 11.6848 16.1311 12.7927 15.6985C13.9005 15.2659 15.1217 15.2285 16.2536 15.5925L25.8156 18.6637C27.0857 17.7187 28.4078 16.8367 29.7716 16.0387C31.0886 15.2932 32.4419 14.616 33.8265 14.0123L35.9503 4.13175C36.2031 2.96204 36.8447 1.91461 37.7687 1.16313C38.6927 0.411652 39.8436 0.00125982 41.0306 0H59.9778C61.1648 0.00125982 62.3157 0.411652 63.2397 1.16313C64.1637 1.91461 64.8053 2.96204 65.0581 4.13175L67.2027 14.0175C70.0272 15.2665 72.7053 16.8283 75.1876 18.6743L84.7548 15.603C85.886 15.2403 87.106 15.2784 88.2127 15.7109C89.3194 16.1435 90.2463 16.9445 90.8398 17.9813L100.313 34.5345C101.521 36.6713 101.105 39.375 99.3088 41.0393L91.8913 47.8642C92.2286 50.9559 92.2286 54.0756 91.8913 57.1672L99.3088 63.9923C101.105 65.6618 101.521 68.3603 100.313 70.497L90.8398 87.0502C90.2461 88.0881 89.3183 88.8899 88.2105 89.3225C87.1027 89.7551 85.8815 89.7925 84.7496 89.4285L75.1876 86.3572C72.7054 88.2018 70.0272 89.7619 67.2027 91.0087L65.0581 100.874C64.8043 102.042 64.1622 103.088 63.2383 103.839C62.3144 104.589 61.164 104.999 59.9778 105ZM27.7051 74.7023L31.9734 77.8523C32.9364 78.5663 33.9358 79.2225 34.9769 79.821C35.9555 80.3933 36.9549 80.9077 37.9907 81.375L42.8473 83.5223L45.2261 94.5H55.7927L58.1716 83.517L63.0281 81.3698C65.1466 80.4248 67.161 79.254 69.0297 77.8733L73.2981 74.7232L83.9272 78.1357L89.2106 68.9062L80.9706 61.3305L81.5536 56.0175C81.8139 53.6918 81.8139 51.345 81.5536 49.0245L80.9706 43.7115L89.2158 36.12L83.9272 26.8852L73.3033 30.2977L69.0297 27.1478C67.16 25.7601 65.1479 24.5791 63.0281 23.625L58.1716 21.4778L55.7927 10.5H45.2261L42.8316 21.483L37.9907 23.625C35.868 24.5627 33.855 25.7354 31.9891 27.1215L27.7155 30.2715L17.0968 26.859L11.803 36.12L20.043 43.6853L19.46 49.0035C19.1997 51.3292 19.1997 53.676 19.46 55.9965L20.043 61.3095L11.803 68.8853L17.0864 78.1147L27.7051 74.7023V74.7023ZM50.4834 73.5C44.9613 73.5 39.6654 71.2875 35.7607 67.3492C31.856 63.411 29.6623 58.0695 29.6623 52.5C29.6623 46.9305 31.856 41.589 35.7607 37.6508C39.6654 33.7125 44.9613 31.5 50.4834 31.5C56.0055 31.5 61.3014 33.7125 65.2061 37.6508C69.1108 41.589 71.3044 46.9305 71.3044 52.5C71.3044 58.0695 69.1108 63.411 65.2061 67.3492C61.3014 71.2875 56.0055 73.5 50.4834 73.5ZM50.4834 42C48.4448 42.0021 46.4516 42.6078 44.7512 43.742C43.0509 44.8762 41.718 46.489 40.9182 48.3802C40.1183 50.2715 39.8866 52.358 40.2518 54.3809C40.617 56.4037 41.5629 58.2739 42.9724 59.7595C44.3819 61.245 46.1927 62.2805 48.1804 62.7374C50.168 63.1944 52.2449 63.0527 54.1534 62.3299C56.0619 61.6071 57.718 60.3351 58.9163 58.6717C60.1145 57.0082 60.8022 55.0265 60.8939 52.9725V55.0725V52.5C60.8939 49.7152 59.7971 47.0445 57.8447 45.0754C55.8924 43.1062 53.2444 42 50.4834 42Z" fill="#282828"/>
</svg>
