<svg width="80" height="80" viewBox="0 0 36 36" fill="none" xmlns="http://www.w3.org/2000/svg">
    <path
        d="M32.638 1.90771H3.36201C1.51102 1.90771 0 3.41873 0 5.26973V23.5908V30.7304C0 32.5814 1.51102 34.0924 3.36201 34.0924H32.638C34.489 34.0924 36 32.5814 36 30.7304V5.26973C36 3.41873 34.489 1.90771 32.638 1.90771ZM34.3001 30.7304C34.3001 31.637 33.5446 32.3925 32.6002 32.3925H3.36201C2.41763 32.3925 1.66212 31.637 1.66212 30.6926V23.893L11.1438 14.2225L19.7188 24.0819C20.021 24.4219 20.4743 24.4597 20.852 24.233L27.8027 19.3222L34.3001 24.0064V30.7304ZM34.3379 21.9665L28.2938 17.6223C27.9916 17.3956 27.6139 17.3956 27.3116 17.6223L20.5121 22.4576L11.8237 12.4848C11.6726 12.296 11.446 12.2204 11.2193 12.1826C10.9927 12.1826 10.766 12.2582 10.5771 12.4471L1.66212 21.5132V5.26973C1.66212 4.36312 2.41763 3.60761 3.36201 3.60761H32.638C33.5824 3.60761 34.3379 4.36312 34.3379 5.30751V21.9665Z"
        fill="#F9458E" fill-opacity="0.75" />
    <path
        d="M23.1186 6.93188C20.7009 6.93188 18.7744 8.89621 18.7744 11.2761C18.7366 13.6559 20.7009 15.6202 23.1186 15.6202C25.5362 15.6202 27.4628 13.6559 27.4628 11.2761C27.4628 8.85843 25.4984 6.93188 23.1186 6.93188ZM23.1186 13.9581C21.6453 13.9581 20.4365 12.7493 20.4365 11.2761C20.4365 9.76505 21.6453 8.59401 23.1186 8.59401C24.5918 8.59401 25.8006 9.80282 25.8006 11.2761C25.8006 12.7493 24.5918 13.9581 23.1186 13.9581Z"
        fill="#F9458E" fill-opacity="0.75" />
</svg>