<svg width="50" height="55" viewBox="0 0 50 55" fill="none" xmlns="http://www.w3.org/2000/svg">
<path d="M49.4365 34.6931L44.2308 29.5592V22.7583C44.2248 18.0584 42.452 13.5276 39.2551 10.0421C36.0582 6.5565 31.6643 4.36377 26.9231 3.88787V0H23.0769V3.88787C18.3357 4.36377 13.9418 6.5565 10.7449 10.0421C7.54803 13.5276 5.77519 18.0584 5.76923 22.7583V29.5592L0.563461 34.6931C0.20279 35.0487 0.000108918 35.531 0 36.0339V41.7235C0 42.2265 0.202609 42.7089 0.563256 43.0646C0.923903 43.4202 1.41305 43.62 1.92308 43.62H15.3846V45.0936C15.3428 47.4996 16.2027 49.8362 17.7996 51.6557C19.3965 53.4751 21.618 54.6495 24.0385 54.9537C25.3753 55.0844 26.7252 54.9378 28.0011 54.5231C29.2771 54.1085 30.4509 53.4351 31.4472 52.5463C32.4434 51.6574 33.2399 50.5727 33.7856 49.362C34.3312 48.1514 34.6139 46.8414 34.6154 45.5166V43.62H48.0769C48.587 43.62 49.0761 43.4202 49.4367 43.0646C49.7974 42.7089 50 42.2265 50 41.7235V36.0339C49.9999 35.531 49.7972 35.0487 49.4365 34.6931ZM30.7692 45.5166C30.7692 47.0255 30.1614 48.4727 29.0795 49.5397C27.9975 50.6067 26.5301 51.2061 25 51.2061C23.4699 51.2061 22.0025 50.6067 20.9205 49.5397C19.8386 48.4727 19.2308 47.0255 19.2308 45.5166V43.62H30.7692V45.5166ZM46.1538 39.827H3.84615V36.8191L9.05192 31.6852C9.41259 31.3296 9.61528 30.8473 9.61538 30.3444V22.7583C9.61538 18.7344 11.2363 14.8753 14.1214 12.0299C17.0066 9.18459 20.9197 7.58609 25 7.58609C29.0803 7.58609 32.9934 9.18459 35.8786 12.0299C38.7637 14.8753 40.3846 18.7344 40.3846 22.7583V30.3444C40.3847 30.8473 40.5874 31.3296 40.9481 31.6852L46.1538 36.8191V39.827Z" fill="#F9458E"/>
</svg>
