<svg width="116" height="130" viewBox="0 0 116 134" fill="none" xmlns="http://www.w3.org/2000/svg">
  <path
    d="M84.8 65H83.8V66V113.53L52.6076 97.8471L52.6073 97.847L48.4489 95.7579L47.9995 95.5321L47.5503 95.7583L43.4113 97.8423L43.4103 97.8428L12.2 113.513V12.1429H57.2H58.2V11.1429V2V1H57.2H11.2C8.4968 1 5.90306 2.06712 3.98972 3.96857C2.07616 5.87024 1 8.45079 1 11.1429V130V131.621L2.44883 130.894L48 108.015L93.5512 130.894L95 131.621V130V66V65H94H84.8Z"
    fill="#F9458E" stroke="#F9458E" stroke-width="2" />
  <path
    d="M68 28.8H85.4V45V46H86.4H95.6H96.6V45V28.8H114H115V27.8V19.2V18.2H114H96.6V2V1H95.6H86.4H85.4V2V18.2H68H67V19.2V27.8V28.8H68Z"
    fill="#F9458E" stroke="#F9458E" stroke-width="2" />
</svg>
