<svg width="23" height="24" viewBox="0 0 23 24" fill="none" xmlns="http://www.w3.org/2000/svg">
  <path
    d="M11.25 0C10.0139 0 8.80549 0.366556 7.77769 1.05331C6.74988 1.74007 5.9488 2.71619 5.47575 3.85823C5.00271 5.00027 4.87893 6.25693 5.12009 7.46931C5.36125 8.6817 5.9565 9.79534 6.83058 10.6694C7.70466 11.5435 8.8183 12.1388 10.0307 12.3799C11.2431 12.6211 12.4997 12.4973 13.6418 12.0242C14.7838 11.5512 15.7599 10.7501 16.4467 9.72231C17.1334 8.69451 17.5 7.48613 17.5 6.25C17.5 4.5924 16.8415 3.00269 15.6694 1.83058C14.4973 0.65848 12.9076 0 11.25 0ZM11.25 10C10.5083 10 9.7833 9.78007 9.16661 9.36801C8.54993 8.95596 8.06928 8.37029 7.78545 7.68506C7.50162 6.99984 7.42736 6.24584 7.57205 5.51841C7.71675 4.79098 8.0739 4.1228 8.59835 3.59835C9.1228 3.0739 9.79098 2.71675 10.5184 2.57206C11.2458 2.42736 11.9998 2.50162 12.6851 2.78545C13.3703 3.06928 13.956 3.54993 14.368 4.16661C14.7801 4.7833 15 5.50832 15 6.25C15 7.24456 14.6049 8.19839 13.9017 8.90165C13.1984 9.60491 12.2446 10 11.25 10ZM22.5 23.75V22.5C22.5 20.1794 21.5781 17.9538 19.9372 16.3128C18.2962 14.6719 16.0706 13.75 13.75 13.75H8.75C6.42936 13.75 4.20376 14.6719 2.56282 16.3128C0.921872 17.9538 0 20.1794 0 22.5V23.75H2.5V22.5C2.5 20.8424 3.15848 19.2527 4.33058 18.0806C5.50269 16.9085 7.0924 16.25 8.75 16.25H13.75C15.4076 16.25 16.9973 16.9085 18.1694 18.0806C19.3415 19.2527 20 20.8424 20 22.5V23.75H22.5Z"
    fill="#282828" />
</svg>